# xmcd
#
# Track frame offsets:
#	182
#	26897
#	77917
#	99077
#	133240
#	187632
#	216652
#	234152
#	259717
#	278782
#
# Disc length: 4511 seconds
#
# Revision: 4
# Processed by: cddbd v1.4PL0 Copyright (c) Steve Scherf et al.
# Submitted via: EasyCDDAExtractor 4.5.0.2
#
DISCID=85119d0a
DTITLE=Dizzy Gillespie - Gillespiana and Carnegie Hall Concert
DYEAR=1960
DGENRE=Jazz
TTITLE0=Prelude
TTITLE1=Blues
TTITLE2=Panamerica
TTITLE3=Africana
TTITLE4=Toccata
TTITLE5=Manteca
TTITLE6=This is the Way
TTITLE7=Ool Ya Koo
TTITLE8=Kush
TTITLE9=Tunisian Fantasy
EXTD=
EXTT0=
EXTT1=
EXTT2=
EXTT3=
EXTT4=
EXTT5=
EXTT6=
EXTT7=
EXTT8=
EXTT9=
PLAYORDER=
